# xmcd
#
# Track frame offsets: 
#        150
#        32047
#        55132
#        75386
#        107129
#        118378
#        137816
#        151864
#        174410
#        190884
#        209118
#        227337
#        249888
#        267523
#
# Disc length: 3778 seconds
#
# Revision: 0
# Processed by: cddbd v1.5.2PL0 Copyright (c) Steve Scherf et al.
# Submitted via: ExactAudioCopy v0.99pb3
#
DISCID=bd0ec00e
DTITLE=Guy Davis - Sweetheart Like You
DYEAR=2009
DGENRE=Blues
TTITLE0=Sweetheart Like You
TTITLE1=Slow Motion Daddy
TTITLE2=Follow Me Down
TTITLE3=Sweet Hannah
TTITLE4=Bring Back Storyville
TTITLE5=Words To My Mama's Song
TTITLE6=Down South Blues
TTITLE7=Hoochie Coochie Man
TTITLE8=Steamboat Captain
TTITLE9=Can't Be Satisfied
TTITLE10=Baby Please Don't Go
TTITLE11=Angels Are Calling
TTITLE12=Goin' Back To Silver Spring
TTITLE13=Ain't Goin' Down
EXTD=
EXTT0=
EXTT1=
EXTT2=
EXTT3=
EXTT4=
EXTT5=
EXTT6=
EXTT7=
EXTT8=
EXTT9=
EXTT10=
EXTT11=
EXTT12=
EXTT13=
PLAYORDER=
